<?xml version="1.0" encoding="utf-8"?>
<!-- Generator: Adobe Illustrator 16.0.0, SVG Export Plug-In . SVG Version: 6.00 Build 0)  -->
<!DOCTYPE svg PUBLIC "-//W3C//DTD SVG 1.1//EN" "http://www.w3.org/Graphics/SVG/1.1/DTD/svg11.dtd">
<svg version="1.1" id="Layer_1" xmlns="http://www.w3.org/2000/svg" xmlns:xlink="http://www.w3.org/1999/xlink" x="0px" y="0px"
	 width="447.84px" height="372.96px" viewBox="0 0 447.84 372.96" enable-background="new 0 0 447.84 372.96" xml:space="preserve">
<path fill-rule="evenodd" clip-rule="evenodd" fill="#F5F4F2" d="M12.652,265.775c0,0,0.371,3.866,0.484,6.74
	c0.113,2.872,0.145,11.367,0.883,16.367s2.652,9.629,2.652,9.629s1.755,4.995,1.928,5.776c0.172,0.782,3.855,5.777,3.855,5.777
	s2.593,3.644,3.213,4.492c0.359,0.492,1.628,3.073,10.603,4.173c3.067,0.376,8.084,1.279,12.852,0.32
	c5.385-1.083,10.569-4.276,14.458-8.344l0.643,6.418c0,0,1.716,1.605,2.57,1.605c0.854,0,8.033,0,8.033,0l-3.213-60.016
	c0,0-0.34-23.916-0.964-25.675c-0.624-1.759,0-4.173,0-4.173s-0.282-15.406-0.322-16.477c-0.027-0.739-1.054-0.642-1.606-0.642
	c-0.552,0-8.675-0.321-8.675-0.321s-0.643-0.096-0.643,0.963s0,5.565,0,5.565l0.964,24.07v41.08l1.928,12.517
	c0,0-12.229,9.234-14.779,9.307c-2.551,0.073-14.966,2.428-19.92-10.911c-4.955-13.34-2.692-16.365-3.213-21.182
	c-0.131-1.212-0.321-6.42-0.321-6.42l-1.285-36.907l-0.24-16.372c0,0,0.109-0.963-0.964-0.963c-2.007,0-10.281,0.643-10.281,0.643
	s-1.012,0.201-0.964,0.642c0.209,1.925,0.561,12.78,0.561,12.78l-0.96,2.411l2.563,29.744L12.652,265.775z"/>
<path fill-rule="evenodd" clip-rule="evenodd" fill="#F5F4F2" d="M91.854,211.537l-0.643,1.604l-0.321,3.531l-1.606,1.283
	c0,0,0.303,3.76,0.643,4.814c0.34,1.054,1.439,11.781,1.285,12.837s2.57,46.536,2.57,46.536s0.45,21.969,0.643,22.465
	c0.193,0.498,1.285,10.912,1.285,10.912s0.054,2.119,0.321,2.567c0.268,0.449,1.285,0.643,1.285,0.643l9.96-0.321l0.321-1.284
	l-0.643-5.776c0,0-0.814-8.124-0.643-9.308c0.171-1.183-0.643-16.046-0.643-16.046l-0.964-33.378l-0.964-18.293l4.177-5.777
	l2.249-0.642c0,0,7.189-5.992,9.96-6.419c2.771-0.428,4.819,0.321,4.819,0.321s14.648,2.524,15.101,3.209s2.159,5.091,2.811,6.098
	c0.651,1.006-0.562,4.49-0.562,4.49s1.153,26.594,1.606,28.887c0.454,2.295-0.321,18.294-0.321,18.294l-0.565,22.145
	c0,0-0.203,7.618-0.244,8.264c-0.042,0.646,0,2.247,0,2.247s-0.206,1.205,0.321,1.283c0.527,0.079,9.798,0.162,9.798,0.162
	s0.483-0.374,0.643-1.605c0.159-1.229,1.37-10.992,1.37-10.992s0.702-27.328,0.565-29.205s0.321-5.776,0.321-5.776
	s0.605-15.994,0.321-17.011c-0.285-1.016-1.198-4.662-1.285-5.455c-0.087-0.795-0.321-18.615-0.321-18.615l-1.285-2.889
	c0,0-2.556-8.113-3.535-8.664c-0.978-0.552-19.109-5.601-23.775-6.099c-4.667-0.497-12.334-0.045-13.173,0.321
	s-3.213,1.925-3.213,1.925l-4.819,2.568c0,0-1.843,1.161-2.249,1.604c-0.406,0.444-1.285,1.284-1.285,1.284l-0.643-5.136
	c0,0,0.006-1.58-1.285-1.604C97.952,211.513,91.854,211.537,91.854,211.537z"/>
<path fill-rule="evenodd" clip-rule="evenodd" fill="#F5F4F2" d="M255.95,315.04c-0.12-0.99-2.16-6.261-2.16-6.261l-3.221-9.31
	c0,0-8.339-23.43-8.989-24.71c-0.641-1.239-0.649-3.1-0.649-3.21l-4.811-17.33l12.199-3.529c0,0,1.98-0.78,2.25-1.28
	c0.271-0.511,1.58-0.82,0-4.5c-1.579-3.67-7.389-15.08-7.389-15.08l-3.531-5.78l-3.21-6.74c0,0-2.77-3.039-4.5-2.56
	c-1.729,0.47-3.54,0.32-3.54,0.32l-5.779-0.971c0,0-16.14-3.2-20.56-3.2c-1.31,0-18.32,1.921-18.32,1.921l-7.39,1.279
	c0,0-0.86,9.37-0.64,12.521c0.22,3.159,0.32,8.021,0.32,8.021s-1.37,2.859-1.28,4.18s0,14.439,0,14.439s0.12,13.311,0.56,15.72
	c0.45,2.42-0.41,3.67-0.56,4.5c-0.14,0.831,0.25,14.761,0.25,14.761l-0.48,7.7l-0.16,9.31l0.56,10.91c0,0-0.09,0.5,0.97,0.64
	c1.05,0.15,9.55,0.08,9.55,0.08l1.29-1.601c0,0-0.15-1.469-0.24-3.05c-0.09-1.58-0.09-19.169-0.09-19.169s0-11.141,0.08-14.131
	c0.07-2.979-0.08-10.909-0.08-10.909l0.56-5.45c0,0,2.63-1.311,3.21-1.291c0.58,0.031,10.6-1.919,10.6-1.919s13.89-0.351,14.46-0.65
	c0.57-0.29,6.75-1.92,6.75-1.92l3.209,8.34c0,0,0.5,3.53,0.641,4.82c0.14,1.279,5.46,15.72,6.109,16.37
	c0.65,0.64,3.991,10.72,4.341,11.229c0.27,0.4,5.119,13.53,5.119,13.53s1.29,4.11,1.381,4.199c0.08,0.081,0.13,0.69,1.06,0.801
	c3.46,0.42,11.79,0.24,11.79,0.24S256.08,316.021,255.95,315.04z M233.54,241.71c0,0-4.82,0.9-16.7,4.17
	c-9.04,2.48-26.99,2.561-26.99,2.561l-3.86,1.289l-0.64-1.93c0,0,1-5.82,0.96-6.74c-0.04-0.91,0.65-3.21,0.65-3.21v-5.13l-0.56-9.39
	l2.25-1.12c0,0,2.62,0.89,8.99,0.88c6.36-0.01,21.79,1.32,27.47,3.29c1.359,1.61,4.26,6.66,4.26,6.66
	c3.44,3.609,3.529,4.81,3.529,4.81s1.5,2.43,1.931,3.21C235.26,241.84,233.54,241.71,233.54,241.71z"/>
<path fill-rule="evenodd" clip-rule="evenodd" fill="#F5F4F2" d="M281.418,314.558c0.359,0.492,1.628,3.073,10.603,4.173
	c3.067,0.376,8.085,1.279,12.852,0.32c5.385-1.083,10.569-4.276,14.459-8.344l2.569,6.098c0,0,1.717,0.963,2.57,0.963
	c0.855,0,8.032,0,8.032,0l-4.66-59.053c0,0-0.019-23.274-0.643-25.033c-0.624-1.758,0-4.172,0-4.172s-0.924-17.223-0.964-18.294
	c-0.027-0.738-1.055-0.642-1.606-0.642s-8.915-0.32-8.915-0.32s-0.643-0.097-0.643,0.962s0,6.74,0,6.74l0.964,24.391l1.045,40.76
	l0.643,12.517c0,0-7.413,9.247-15.101,9.628c-2.547,0.152-14.002,2.106-18.956-11.232c-4.955-13.34-2.439-12.927-3.534-21.182
	c-0.16-1.208-0.322-6.42-0.322-6.42l-1.928-36.266v-18.374c0,0,0.11-0.963-0.964-0.963c-2.007,0-10.28,0.804-10.28,0.804
	s-1.012,0.201-0.965,0.643c0.211,1.924,0.965,21.101,0.965,21.101v3.851l0.643,21.183c0,0,0.215,0.592,0,2.246
	c-0.216,1.654,0.642,5.135,0.642,5.135s0.851,3.866,0.964,6.74c0.113,2.872-0.096,11.367,0.643,16.367
	c0.739,5,2.57,9.949,2.57,9.949s5.536,12.116,6.426,13.159C279.416,313.033,280.798,313.709,281.418,314.558z"/>
<path fill-rule="evenodd" clip-rule="evenodd" fill="#F5F4F2" d="M360.738,298.832c0,0,0.028-11.431-0.321-13.158
	s-1.281-4.173-1.285-5.456c-0.004-1.284-1.649-34.982-1.649-34.982s0.748-26.108,0.279-28.885c-0.468-2.775-0.604-17.33-0.604-17.33
	l-1.327-48.141c0,0-0.244-1.976-0.643-2.567c-0.399-0.592-3.535-0.592-3.535-0.592s-7.322,0.581-8.139,0.581
	c-0.817,0-0.926,0.739-0.926,0.739l0.39,35.217c0,0-0.921,17.434,0.364,21.503c1.285,4.068,0,9.628,0,9.628l1.971,34.34
	c0,0,0.042,33.699,1.006,37.55c0.964,3.852,0.964,22.466,0.964,22.466l2.086,4.897l-0.649,2.158c0,0-0.098,0.438,0.48,0.479
	c0.577,0.042,18.696,1.104,19.289,0.809c0.687-0.34,0.963-1.604,0.963-1.604l-0.321-1.283c0,0-3.554-2.35-3.533-4.172
	c0.02-1.824-4.859-5.136-4.859-5.136V298.832z"/>
<path fill-rule="evenodd" clip-rule="evenodd" fill="#F5F4F2" d="M437.566,332.079l-2.732,2.246l0.402,2.787l-44.797,4.609
	l-4.413-2.085l-7.546,1.163v-6.72l2.037-2.384l-0.201-2.086l41.542-3.698l0.643-5.005l-0.678-2.177c0,0-1.667-0.795-3.213-0.321
	s-10.281-0.642-10.281-0.642h-10.281l-15.743-3.21c0,0-1.855-3.287-1.928-3.529c-0.074-0.243,0.321-5.777,0.321-5.777l-0.644-6.098
	l-0.32-21.824l-0.644-15.726l-0.643-16.688c0,0-0.554-10.693-0.321-12.518c0.233-1.823-0.32-10.27-0.32-10.27v-11.554
	c0,0-0.073-0.848,0.963-0.963h8.996c0,0,0.584,0.146,0.965,0.643c0.38,0.495,0.643,2.566,0.643,2.566s0.787,3.079,0.964,4.814
	c0.176,1.736,0.321,26.638,0.321,26.638l0.321,2.247v16.047c0,0,0.953,5.247,0.964,5.776c0.01,0.53,0,17.973,0,17.973
	s1.005,18.635,1.928,18.936c0.923,0.3,2.664,0.944,3.213,0.963s25.382,0,25.382,0l0.321-35.945l1.606-10.911l2.892-45.253
	c0,0,0.221-1.843,0.643-1.926c0.424-0.083,4.178,0,4.178,0l5.14,0.642c0,0-0.022,0.198,0,0.963c0.023,0.767,0.321,4.494,0.321,4.494
	l0.24,7.531c0,0,0.642,0.436,0.883,1.123c0.242,0.686-1.766,13.169-1.766,13.169l-0.643,22.466l-1.285,17.651l0.322,19.577
	l0.321,8.023c0,0-0.161,15.727,0.321,17.651"/>
<path fill-rule="evenodd" clip-rule="evenodd" fill="#F5F4F2" d="M432.156,350.204l0.324-4.124l2.188-3.581l-44.879,4.453
	l-3.937,1.593l-7.372-1.745v8.4l-1.92,6.479L432.156,350.204z"/>
<path fill="#F5F4F2" d="M20.205,350.083h5.86v11.934h5.114v-26.998c0-3.721-2.043-5.581-6.126-5.581h-3.836
	c-4.084,0-6.126,1.86-6.126,5.581v26.998h5.114V350.083z M20.205,346.136v-10.845c0-1.271,0.746-1.905,2.238-1.905h1.385
	c1.492,0,2.238,0.635,2.238,1.905v10.845H20.205z"/>
<path fill="#F5F4F2" d="M64.741,333.386v-3.948H49.825v3.948h4.901v28.631h5.115v-28.631H64.741z"/>
<path fill="#F5F4F2" d="M96.705,333.386v-3.948H81.788v3.948h4.901v28.631h5.114v-28.631H96.705z"/>
<path fill="#F5F4F2" d="M115.616,362.017h5.114v-13.159h3.09l3.356,13.159h4.848l-3.569-13.567c2.024-0.755,3.037-2.556,3.037-5.399
	v-8.031c0-3.721-1.954-5.581-5.86-5.581h-10.016V362.017z M120.73,333.386h3.356c1.527,0,2.291,0.786,2.291,2.359v7.033
	c0,1.572-0.764,2.358-2.291,2.358h-3.356V333.386z"/>
<path fill="#F5F4F2" d="M156.583,350.083h5.86v11.934h5.114v-26.998c0-3.721-2.042-5.581-6.126-5.581h-3.835
	c-4.084,0-6.126,1.86-6.126,5.581v26.998h5.114V350.083z M156.583,346.136v-10.845c0-1.271,0.746-1.905,2.237-1.905h1.385
	c1.492,0,2.237,0.635,2.237,1.905v10.845H156.583z"/>
<path fill="#F5F4F2" d="M198.242,354.394v1.77c0,1.271-0.675,1.906-2.024,1.906h-1.278c-1.35,0-2.024-0.636-2.024-1.906v-20.872
	c0-1.271,0.674-1.905,2.024-1.905h1.012c1.526,0,2.291,0.635,2.291,1.905v3.357h5.114v-3.675c0-3.69-2.042-5.536-6.126-5.536h-3.303
	c-4.085,0-6.126,1.846-6.126,5.536v21.508c0,3.69,2.042,5.535,6.126,5.535h3.303c4.084,0,6.126-1.845,6.126-5.535v-2.088H198.242z"
	/>
<path fill="#F5F4F2" d="M236.386,333.386v-3.948H221.47v3.948h4.9v28.631h5.115v-28.631H236.386z"/>
<path fill="#F5F4F2" d="M260.411,362.017v-32.579h-5.113v32.579H260.411z"/>
<path fill="#F5F4F2" d="M291.896,362.017c4.119,0,6.18-1.845,6.18-5.535v-21.463c0-3.721-2.044-5.581-6.127-5.581h-4.901
	c-4.085,0-6.126,1.86-6.126,5.581v21.463c0,3.69,2.06,5.535,6.18,5.535H291.896z M286.035,356.163v-20.872
	c0-1.271,0.746-1.905,2.238-1.905h2.396c1.527,0,2.291,0.635,2.291,1.905v20.872c0,1.271-0.675,1.906-2.023,1.906h-2.61
	C286.799,358.069,286.035,357.434,286.035,356.163L286.035,356.163z"/>
<path fill="#F5F4F2" d="M323.699,329.438h-5.114v32.579h5.114V340.69l5.488,14.838v6.488h5.114v-32.579h-5.114v15.745
	L323.699,329.438z"/>
<path fill="#F5F4F2" d="M369.994,338.195v-3.177c0-3.721-2.042-5.581-6.127-5.581h-3.195c-4.085,0-6.127,1.86-6.127,5.581v6.67
	c0,0.848,0.106,1.536,0.319,2.064c0.213,0.53,0.56,0.961,1.039,1.293c0.479,0.333,1.252,0.742,2.317,1.226l4.848,2.314
	c0.64,0.333,1.101,0.605,1.385,0.816c0.285,0.212,0.427,0.62,0.427,1.226v5.535c0,1.271-0.675,1.906-2.024,1.906h-0.906
	c-1.526,0-2.29-0.636-2.29-1.906v-1.77h-5.114v1.634c0,3.993,2.042,5.989,6.127,5.989h3.143c4.119,0,6.18-1.83,6.18-5.49v-6.942
	c0-1.149-0.125-1.929-0.373-2.337s-0.596-0.756-1.039-1.044c-0.444-0.287-1.198-0.688-2.264-1.202l-4.849-2.223
	c-0.639-0.333-1.101-0.605-1.385-0.817c-0.284-0.211-0.426-0.62-0.426-1.225v-5.4c0-1.3,0.728-1.95,2.185-1.95h0.799
	c1.492,0,2.237,0.65,2.237,1.95v2.859H369.994z"/>
<path fill-rule="evenodd" clip-rule="evenodd" fill="#F5F4F2" d="M307.47,21.71l-2.43-4.85l-1.45-0.48l-1.939-4.85l-4.84,0.48
	l-18.41-0.97l-13.561,0.97l-47.95-1.45l-8.23,0.97l-29.55-0.97l-28.57,0.97l-4.36,1.45l-2.91-0.48l-0.97,2.42l-4.11,1.48
	c0,0-1.39,7.61-1.21,9.18c0.17,1.57,0,11.15,0,11.15l0.48,14.54l-0.48,20.35l0.96,24.23l0.97,2.9l-1.87,2.77l-0.24,29.04
	c0,0,0.4,29.15,0.49,30.96s0,7.68,0,7.68l0.91,4.66l2.65,0.49l-0.21,4.93l3.6,1.37c0,0,6.06,0.48,7.27,0.48h58.6l3.88-0.97
	l15.979,1.46l14.53-0.49h49.4l7.51-1.46l2.43-0.25l0.24-3.13l2.9-5.33v-2.91l-1.451-1.45l1.451-2.91l0.489-23.75l-0.97-17.93
	l0.48-3.39V64.83l0.489-5.81V36.24l-0.97-8.72L307.47,21.71z M267.22,54.23l5.33-0.88l3-3.11l4.95,3.5
	c2.35,2.36,3.86,8.94,3.86,8.94l-7.351,8.58l-5.32-4.83c0,0-4.949-5.07-5.67-6.16C265.3,59.19,267.22,54.23,267.22,54.23z
	 M241.28,59.31l6.78,0.97h4.1c0,0,29.49,39.38,32.4,41.32l-0.45,2.96c1.459,1.93,3.39,24.67,3.39,24.67l2.42,3.88l-1.93,5.8v5.81
	l-12.59-10.16l-30.011-31.94l-2.43-6.29h-2.899l-30.5-26.61L241.28,59.31z M202.8,25.68c0,0,1.44,6.29,1.92,10.16
	c0.49,3.87,2.91,15,2.91,15l-0.49,4.36l-5.81,4.84l-25.17-30l1.45-1.46l-1.69-2.9H202.8z M257.689,164.16l-3.39,0.97l-14.05-1.94
	c0,0-67.32-0.96-69.74,0c-2.42,0.97-10.41,0.72-10.41,0.72l-1.21-4.59l-4.83-1.45l1.45-11.14l-1.43-79.29l0.69-6.67l-0.96-25.42
	l-0.71-8.94l5.55,2.2l4.11,5.77c0,0,4.36,9.69,7.27,13.08c2.9,3.39,21.79,19.85,21.79,19.85l64.411,68.3l24.22,17.91l4.869,4.61
	l4.07,3.13l1.73,4.1L257.689,164.16z"/>
</svg>
