<?xml version="1.0" encoding="UTF-8" standalone="no"?><!DOCTYPE svg PUBLIC "-//W3C//DTD SVG 1.1//EN" "http://www.w3.org/Graphics/SVG/1.1/DTD/svg11.dtd"><svg width="100%" height="100%" viewBox="0 0 834 834" version="1.1" xmlns="http://www.w3.org/2000/svg" xmlns:xlink="http://www.w3.org/1999/xlink" xml:space="preserve" xmlns:serif="http://www.serif.com/" style="fill-rule:evenodd;clip-rule:evenodd;stroke-linejoin:round;stroke-miterlimit:2;"><g id="Layer-1" serif:id="Layer 1"><path d="M564.812,700.292l-14.125,4.041l-58.537,-8.083c-0,-0 -280.5,-4 -290.588,-0c-10.083,4.042 -43.37,3 -43.37,3l-5.042,-19.125l-20.125,-6.042l6.037,-46.416l-5.954,-330.375l2.875,-27.792l-4,-105.917l-2.958,-37.25l23.121,9.167l17.125,24.042c-0,-0 18.171,40.375 30.291,54.5c12.088,14.125 90.792,82.708 90.792,82.708l268.379,284.583l100.917,74.625l20.287,19.209l16.959,13.041l7.212,17.084l-139.296,-5Zm-228.708,-577c0,-0 6.004,26.208 8.004,42.333c2.042,16.125 12.121,62.5 12.121,62.5l-2.037,18.167l-24.209,20.166l-104.875,-125l6.038,-6.083l-7.042,-12.083l112,-0Zm160.338,140.125l28.25,4.041l17.083,0c-0,0 122.875,164.084 135,172.167l-1.875,12.333c6.079,8.042 14.125,102.792 14.125,102.792l10.079,16.167l-8.037,24.166l-0,24.209l-52.459,-42.334l-125.046,-133.083l-10.12,-26.208l-12.084,-0l-127.083,-110.875l132.167,-43.375Zm108.079,-21.167l22.208,-3.667l12.5,-12.958l20.629,14.583c9.788,9.834 16.084,37.25 16.084,37.25l-30.63,35.75l-22.166,-20.125c-0,0 -20.621,-21.125 -23.625,-25.666c-3,-4.5 5,-25.167 5,-25.167m167.708,-135.5l-10.121,-20.208l-6.046,-2l-8.079,-20.209l-20.166,2l-76.709,-4.041l-56.504,4.041l-199.787,-6.041l-34.292,4.041l-123.129,-4.041l-119.038,4.041l-18.166,6.042l-12.125,-2l-4.046,10.083l-17.125,6.167c-0,0 -5.792,31.708 -5.038,38.25c0.705,6.542 0,46.458 0,46.458l2,60.584l-2,84.791l3.996,100.959l4.046,12.083l-7.792,11.542l-1.004,121c0,-0 1.671,121.458 2.046,129c0.371,7.541 0,32 0,32l3.792,19.416l11.041,2.042l-0.875,20.542l15,5.708c0,-0 25.246,2 30.288,2l244.167,-0l16.17,-4.042l66.579,6.084l60.546,-2.042l205.834,-0l31.291,-6.083l10.121,-1.042l1.004,-13.042l12.084,-22.208l-0,-12.125l-6.046,-6.042l6.046,-12.125l2.037,-98.958l-4.037,-74.708l2,-14.125l-0,-224.125l2.037,-24.209l0,-94.916l-4.037,-36.334l4.037,-24.208Z" style="fill:#171819;"/></g></svg>