<?xml version="1.0" encoding="utf-8"?>
<!-- Generator: Adobe Illustrator 16.0.0, SVG Export Plug-In . SVG Version: 6.00 Build 0)  -->
<!DOCTYPE svg PUBLIC "-//W3C//DTD SVG 1.1//EN" "http://www.w3.org/Graphics/SVG/1.1/DTD/svg11.dtd">
<svg version="1.1" id="Layer_1" xmlns="http://www.w3.org/2000/svg" xmlns:xlink="http://www.w3.org/1999/xlink" x="0px" y="0px"
	 width="447.84px" height="372.96px" viewBox="0 0 447.84 372.96" enable-background="new 0 0 447.84 372.96" xml:space="preserve">
<path fill-rule="evenodd" clip-rule="evenodd" fill="#19191A" d="M12.652,265.776c0,0,0.371,3.866,0.484,6.739
	s0.145,11.368,0.883,16.368c0.738,5,2.652,9.628,2.652,9.628s1.755,4.995,1.928,5.777c0.172,0.782,3.855,5.777,3.855,5.777
	s2.593,3.644,3.213,4.493c0.359,0.492,1.628,3.073,10.603,4.172c3.067,0.375,8.084,1.279,12.852,0.321
	c5.385-1.083,10.569-4.277,14.458-8.344l0.643,6.418c0,0,1.716,1.605,2.57,1.605c0.854,0,8.033,0,8.033,0l-3.213-60.016
	c0,0-0.34-23.916-0.964-25.675c-0.624-1.759,0-4.172,0-4.172s-0.282-15.407-0.322-16.477c-0.027-0.739-1.054-0.642-1.606-0.642
	c-0.552,0-8.675-0.321-8.675-0.321s-0.643-0.096-0.643,0.963c0,1.059,0,5.565,0,5.565l0.964,24.07v41.08l1.928,12.516
	c0,0-12.229,9.234-14.779,9.308c-2.551,0.073-14.966,2.427-19.92-10.912c-4.955-13.339-2.692-16.365-3.213-21.182
	c-0.131-1.211-0.321-6.419-0.321-6.419l-1.285-36.908l-0.24-16.372c0,0,0.109-0.963-0.964-0.963c-2.007,0-10.281,0.642-10.281,0.642
	s-1.012,0.201-0.964,0.642c0.209,1.925,0.561,12.78,0.561,12.78l-0.96,2.411l2.563,29.744L12.652,265.776z"/>
<path fill-rule="evenodd" clip-rule="evenodd" fill="#19191A" d="M91.854,211.537l-0.643,1.605l-0.321,3.53l-1.606,1.284
	c0,0,0.303,3.759,0.643,4.814s1.439,11.781,1.285,12.837s2.57,46.536,2.57,46.536s0.45,21.969,0.643,22.465
	c0.193,0.497,1.285,10.912,1.285,10.912s0.054,2.118,0.321,2.567c0.268,0.449,1.285,0.642,1.285,0.642l9.96-0.321l0.321-1.284
	l-0.643-5.777c0,0-0.814-8.125-0.643-9.307s-0.643-16.047-0.643-16.047l-0.964-33.377l-0.964-18.293l4.177-5.777l2.249-0.642
	c0,0,7.189-5.992,9.96-6.419c2.771-0.427,4.819,0.321,4.819,0.321s14.648,2.525,15.101,3.209s2.159,5.091,2.811,6.098
	c0.651,1.006-0.562,4.49-0.562,4.49s1.153,26.593,1.606,28.887c0.454,2.294-0.321,18.293-0.321,18.293l-0.565,22.145
	c0,0-0.203,7.617-0.244,8.263s0,2.247,0,2.247s-0.206,1.205,0.321,1.284s9.798,0.162,9.798,0.162s0.483-0.375,0.643-1.605
	c0.159-1.23,1.37-10.993,1.37-10.993s0.702-27.328,0.565-29.205c-0.136-1.877,0.321-5.777,0.321-5.777s0.605-15.994,0.321-17.01
	c-0.285-1.016-1.198-4.662-1.285-5.456c-0.087-0.794-0.321-18.614-0.321-18.614l-1.285-2.889c0,0-2.556-8.114-3.535-8.665
	c-0.978-0.551-19.109-5.6-23.775-6.098c-4.667-0.498-12.334-0.045-13.173,0.321c-0.839,0.366-3.213,1.925-3.213,1.925l-4.819,2.568
	c0,0-1.843,1.161-2.249,1.604s-1.285,1.284-1.285,1.284l-0.643-5.135c0,0,0.006-1.581-1.285-1.605
	C97.952,211.513,91.854,211.537,91.854,211.537z"/>
<path fill-rule="evenodd" clip-rule="evenodd" fill="#19191A" d="M255.95,315.04c-0.12-0.99-2.16-6.26-2.16-6.26l-3.22-9.31
	c0,0-8.34-23.43-8.99-24.71c-0.64-1.24-0.65-3.1-0.65-3.21l-4.81-17.33l12.2-3.53c0,0,1.98-0.78,2.25-1.28
	c0.27-0.51,1.58-0.82,0-4.5c-1.58-3.67-7.39-15.08-7.39-15.08l-3.53-5.78l-3.21-6.74c0,0-2.77-3.04-4.5-2.56
	c-1.73,0.47-3.54,0.32-3.54,0.32l-5.78-0.97c0,0-16.14-3.2-20.56-3.2c-1.31,0-18.32,1.92-18.32,1.92l-7.39,1.28
	c0,0-0.86,9.37-0.64,12.52c0.22,3.16,0.32,8.02,0.32,8.02s-1.37,2.86-1.28,4.18c0.09,1.32,0,14.44,0,14.44s0.12,13.31,0.56,15.72
	c0.45,2.42-0.41,3.67-0.56,4.5c-0.14,0.83,0.25,14.76,0.25,14.76l-0.48,7.7l-0.16,9.31l0.56,10.91c0,0-0.09,0.5,0.97,0.64
	c1.05,0.15,9.55,0.08,9.55,0.08l1.29-1.6c0,0-0.15-1.47-0.24-3.05c-0.09-1.58-0.09-19.17-0.09-19.17s0-11.14,0.08-14.13
	c0.07-2.98-0.08-10.91-0.08-10.91l0.56-5.45c0,0,2.63-1.31,3.21-1.29c0.58,0.03,10.6-1.92,10.6-1.92s13.89-0.35,14.46-0.65
	c0.57-0.29,6.75-1.92,6.75-1.92l3.21,8.34c0,0,0.5,3.53,0.64,4.82c0.14,1.28,5.46,15.72,6.11,16.37c0.65,0.64,3.99,10.72,4.34,11.23
	c0.27,0.4,5.12,13.53,5.12,13.53s1.29,4.11,1.38,4.2c0.08,0.08,0.13,0.69,1.06,0.8c3.46,0.42,11.79,0.24,11.79,0.24
	S256.08,316.02,255.95,315.04z M233.54,241.71c0,0-4.82,0.9-16.7,4.17c-9.04,2.48-26.99,2.56-26.99,2.56l-3.86,1.29l-0.64-1.93
	c0,0,1-5.82,0.96-6.74c-0.04-0.91,0.65-3.21,0.65-3.21v-5.13l-0.56-9.39l2.25-1.12c0,0,2.62,0.89,8.99,0.88
	c6.36-0.01,21.79,1.32,27.47,3.29c1.36,1.61,4.26,6.66,4.26,6.66c3.44,3.61,3.53,4.81,3.53,4.81s1.5,2.43,1.93,3.21
	C235.26,241.84,233.54,241.71,233.54,241.71z"/>
<path fill-rule="evenodd" clip-rule="evenodd" fill="#19191A" d="M281.417,314.558c0.359,0.492,1.628,3.073,10.603,4.172
	c3.067,0.375,8.084,1.279,12.852,0.321c5.385-1.083,10.569-4.277,14.458-8.344l2.57,6.098c0,0,1.716,0.963,2.57,0.963
	s8.032,0,8.032,0l-4.661-59.053c0,0-0.019-23.274-0.643-25.033c-0.624-1.758,0-4.172,0-4.172s-0.924-17.223-0.964-18.293
	c-0.027-0.739-1.054-0.642-1.606-0.642c-0.552,0-8.915-0.321-8.915-0.321s-0.643-0.096-0.643,0.963c0,1.059,0,6.74,0,6.74
	l0.964,24.391l1.045,40.759l0.643,12.516c0,0-7.414,9.248-15.101,9.628c-2.547,0.153-14.001,2.106-18.956-11.233
	c-4.955-13.339-2.439-12.926-3.534-21.182c-0.161-1.208-0.322-6.419-0.322-6.419l-1.928-36.266v-18.374c0,0,0.109-0.963-0.964-0.963
	c-2.007,0-10.281,0.804-10.281,0.804s-1.012,0.201-0.964,0.642c0.21,1.925,0.964,21.101,0.964,21.101v3.851l0.643,21.182
	c0,0,0.215,0.592,0,2.247s0.643,5.135,0.643,5.135s0.851,3.866,0.964,6.739s-0.096,11.368,0.643,16.368
	c0.738,5,2.57,9.949,2.57,9.949s5.536,12.116,6.426,13.159C279.416,313.033,280.798,313.709,281.417,314.558z"/>
<path fill-rule="evenodd" clip-rule="evenodd" fill="#19191A" d="M360.738,298.832c0,0,0.028-11.431-0.321-13.158
	s-1.281-4.172-1.285-5.456s-1.649-34.982-1.649-34.982s0.747-26.108,0.279-28.884c-0.468-2.775-0.604-17.331-0.604-17.331
	l-1.328-48.141c0,0-0.244-1.976-0.643-2.567s-3.534-0.592-3.534-0.592s-7.323,0.581-8.14,0.581c-0.817,0-0.925,0.739-0.925,0.739
	l0.39,35.217c0,0-0.921,17.435,0.364,21.503s0,9.628,0,9.628l1.97,34.34c0,0,0.042,33.698,1.006,37.549
	c0.964,3.852,0.964,22.466,0.964,22.466l2.086,4.897l-0.649,2.158c0,0-0.098,0.439,0.48,0.48c0.578,0.042,18.696,1.103,19.289,0.809
	c0.687-0.341,0.964-1.604,0.964-1.604l-0.321-1.284c0,0-3.554-2.349-3.534-4.172s-4.859-5.135-4.859-5.135V298.832z"/>
<path fill-rule="evenodd" clip-rule="evenodd" fill="#19191A" d="M437.567,332.079l-2.733,2.247l0.403,2.786l-44.797,4.61
	l-4.413-2.085l-7.546,1.163v-6.72l2.038-2.384l-0.201-2.086l41.542-3.698l0.643-5.005l-0.677-2.177c0,0-1.667-0.795-3.213-0.321
	c-1.546,0.474-10.282-0.642-10.282-0.642h-10.281l-15.744-3.209c0,0-1.854-3.288-1.928-3.53s0.321-5.777,0.321-5.777l-0.643-6.098
	l-0.321-21.823l-0.643-15.726l-0.643-16.689c0,0-0.554-10.693-0.321-12.517c0.233-1.823-0.321-10.27-0.321-10.27v-11.554
	c0,0-0.073-0.848,0.964-0.963h8.996c0,0,0.583,0.147,0.964,0.642c0.38,0.495,0.643,2.567,0.643,2.567s0.788,3.078,0.964,4.814
	c0.176,1.736,0.321,26.638,0.321,26.638l0.321,2.247v16.047c0,0,0.953,5.248,0.964,5.777c0.01,0.529,0,17.972,0,17.972
	s1.005,18.635,1.928,18.936c0.922,0.3,2.664,0.944,3.213,0.963c0.549,0.018,25.382,0,25.382,0l0.321-35.945l1.606-10.912
	l2.892-45.252c0,0,0.22-1.842,0.643-1.925c0.423-0.083,4.177,0,4.177,0l5.141,0.642c0,0-0.022,0.197,0,0.963
	c0.023,0.766,0.321,4.493,0.321,4.493l0.24,7.532c0,0,0.641,0.435,0.882,1.122c0.242,0.687-1.765,13.169-1.765,13.169l-0.643,22.466
	l-1.285,17.651l0.321,19.577l0.321,8.023c0,0-0.161,15.726,0.322,17.651"/>
<path fill-rule="evenodd" clip-rule="evenodd" fill="#19191A" d="M432.156,350.205l0.324-4.125l2.188-3.582l-44.879,4.453
	l-3.937,1.593l-7.373-1.745v8.4l-1.92,6.48L432.156,350.205z"/>
<path fill="#19191A" d="M20.205,350.083h5.86v11.934h5.114v-26.998c0-3.721-2.043-5.581-6.126-5.581h-3.836
	c-4.084,0-6.126,1.86-6.126,5.581v26.998h5.114V350.083z M20.205,346.135v-10.844c0-1.271,0.746-1.906,2.238-1.906h1.385
	c1.492,0,2.238,0.635,2.238,1.906v10.844H20.205z"/>
<path fill="#19191A" d="M64.741,333.385v-3.948H49.825v3.948h4.901v28.631h5.115v-28.631H64.741z"/>
<path fill="#19191A" d="M96.705,333.385v-3.948H81.788v3.948h4.901v28.631h5.114v-28.631H96.705z"/>
<path fill="#19191A" d="M115.616,362.017h5.114v-13.159h3.09l3.356,13.159h4.848l-3.569-13.567c2.024-0.755,3.037-2.556,3.037-5.399
	v-8.031c0-3.721-1.954-5.581-5.86-5.581h-10.016V362.017z M120.73,333.385h3.356c1.527,0,2.291,0.787,2.291,2.359v7.033
	c0,1.573-0.764,2.359-2.291,2.359h-3.356V333.385z"/>
<path fill="#19191A" d="M156.583,350.083h5.86v11.934h5.114v-26.998c0-3.721-2.042-5.581-6.126-5.581h-3.835
	c-4.084,0-6.126,1.86-6.126,5.581v26.998h5.114V350.083z M156.583,346.135v-10.844c0-1.271,0.746-1.906,2.237-1.906h1.385
	c1.492,0,2.237,0.635,2.237,1.906v10.844H156.583z"/>
<path fill="#19191A" d="M198.242,354.394v1.77c0,1.271-0.675,1.906-2.024,1.906h-1.278c-1.35,0-2.024-0.635-2.024-1.906v-20.872
	c0-1.271,0.674-1.906,2.024-1.906h1.012c1.526,0,2.291,0.635,2.291,1.906v3.357h5.114v-3.675c0-3.69-2.042-5.536-6.126-5.536h-3.303
	c-4.085,0-6.126,1.846-6.126,5.536v21.508c0,3.691,2.042,5.536,6.126,5.536h3.303c4.084,0,6.126-1.845,6.126-5.536v-2.087H198.242z"
	/>
<path fill="#19191A" d="M236.386,333.385v-3.948H221.47v3.948h4.901v28.631h5.114v-28.631H236.386z"/>
<path fill="#19191A" d="M260.412,362.017v-32.579h-5.114v32.579H260.412z"/>
<path fill="#19191A" d="M291.896,362.017c4.12,0,6.18-1.845,6.18-5.536v-21.462c0-3.721-2.043-5.581-6.126-5.581h-4.901
	c-4.084,0-6.126,1.86-6.126,5.581v21.462c0,3.691,2.06,5.536,6.18,5.536H291.896z M286.036,356.163v-20.872
	c0-1.271,0.746-1.906,2.238-1.906h2.397c1.527,0,2.291,0.635,2.291,1.906v20.872c0,1.271-0.675,1.906-2.024,1.906h-2.61
	C286.799,358.069,286.036,357.434,286.036,356.163L286.036,356.163z"/>
<path fill="#19191A" d="M323.7,329.438h-5.114v32.579h5.114V340.69l5.487,14.837v6.489h5.114v-32.579h-5.114v15.745L323.7,329.438z"
	/>
<path fill="#19191A" d="M369.994,338.195v-3.176c0-3.721-2.042-5.581-6.126-5.581h-3.196c-4.084,0-6.126,1.86-6.126,5.581v6.67
	c0,0.847,0.106,1.536,0.319,2.064c0.213,0.53,0.56,0.961,1.039,1.293c0.479,0.333,1.252,0.742,2.317,1.225l4.848,2.314
	c0.64,0.333,1.101,0.605,1.385,0.817c0.284,0.212,0.426,0.62,0.426,1.225v5.536c0,1.271-0.675,1.906-2.024,1.906h-0.906
	c-1.527,0-2.291-0.635-2.291-1.906v-1.77h-5.114v1.633c0,3.993,2.042,5.99,6.126,5.99h3.143c4.12,0,6.18-1.83,6.18-5.49v-6.942
	c0-1.149-0.125-1.929-0.373-2.337c-0.249-0.408-0.595-0.756-1.039-1.044c-0.445-0.287-1.199-0.688-2.264-1.202l-4.848-2.223
	c-0.639-0.333-1.101-0.605-1.385-0.817c-0.285-0.211-0.426-0.62-0.426-1.225v-5.4c0-1.3,0.728-1.951,2.184-1.951h0.799
	c1.492,0,2.237,0.651,2.237,1.951v2.859H369.994z"/>
<path fill-rule="evenodd" clip-rule="evenodd" fill="#19191A" d="M307.47,21.71l-2.43-4.85l-1.45-0.48l-1.94-4.85l-4.84,0.48
	l-18.41-0.97l-13.56,0.97l-47.95-1.45l-8.23,0.97l-29.55-0.97l-28.57,0.97l-4.36,1.45l-2.91-0.48l-0.97,2.42l-4.11,1.48
	c0,0-1.39,7.61-1.21,9.18c0.17,1.57,0,11.15,0,11.15l0.48,14.54l-0.48,20.35l0.96,24.23l0.97,2.9l-1.87,2.77l-0.24,29.04
	c0,0,0.4,29.15,0.49,30.96s0,7.68,0,7.68l0.91,4.66l2.65,0.49l-0.21,4.93l3.6,1.37c0,0,6.06,0.48,7.27,0.48h58.6l3.88-0.97
	l15.98,1.46l14.53-0.49h49.4l7.51-1.46l2.43-0.25l0.24-3.13l2.9-5.33v-2.91l-1.45-1.45l1.45-2.91l0.49-23.75l-0.97-17.93l0.48-3.39
	V64.83l0.49-5.81V36.24l-0.97-8.72L307.47,21.71z M267.22,54.23l5.33-0.88l3-3.11l4.95,3.5c2.35,2.36,3.86,8.94,3.86,8.94
	l-7.35,8.58l-5.32-4.83c0,0-4.95-5.07-5.67-6.16C265.3,59.19,267.22,54.23,267.22,54.23z M241.28,59.31l6.78,0.97h4.1
	c0,0,29.49,39.38,32.4,41.32l-0.45,2.96c1.46,1.93,3.39,24.67,3.39,24.67l2.42,3.88l-1.93,5.8v5.81l-12.59-10.16l-30.01-31.94
	l-2.43-6.29h-2.9l-30.5-26.61L241.28,59.31z M202.8,25.68c0,0,1.44,6.29,1.92,10.16c0.49,3.87,2.91,15,2.91,15l-0.49,4.36
	l-5.81,4.84l-25.17-30l1.45-1.46l-1.69-2.9H202.8z M257.69,164.16l-3.39,0.97l-14.05-1.94c0,0-67.32-0.96-69.74,0
	c-2.42,0.97-10.41,0.72-10.41,0.72l-1.21-4.59l-4.83-1.45l1.45-11.14l-1.43-79.29l0.69-6.67l-0.96-25.42l-0.71-8.94l5.55,2.2
	l4.11,5.77c0,0,4.36,9.69,7.27,13.08c2.9,3.39,21.79,19.85,21.79,19.85l64.41,68.3l24.22,17.91l4.87,4.61l4.07,3.13l1.73,4.1
	L257.69,164.16z"/>
<path fill-rule="evenodd" clip-rule="evenodd" fill="none" d="M233.54,241.71c0,0-4.82,0.9-16.7,4.17
	c-9.04,2.48-26.99,2.56-26.99,2.56l-3.86,1.29l-0.64-1.93c0,0,1-5.82,0.96-6.74c-0.04-0.91,0.65-3.21,0.65-3.21v-5.13l-0.56-9.39
	l2.25-1.12c0,0,2.62,0.89,8.99,0.88c6.36-0.01,21.79,1.32,27.47,3.29c1.36,1.61,4.26,6.66,4.26,6.66c3.44,3.61,3.53,4.81,3.53,4.81
	s1.5,2.43,1.93,3.21C235.26,241.84,233.54,241.71,233.54,241.71z"/>
<g>
	<path fill-rule="evenodd" clip-rule="evenodd" fill="none" d="M291.12,165.36l-33.43-1.2l-3.39,0.97l-14.05-1.94
		c0,0-67.32-0.96-69.74,0c-2.42,0.97-10.41,0.72-10.41,0.72l-1.21-4.59l-4.83-1.45l1.45-11.14l-1.43-79.29l0.69-6.67l-0.96-25.42
		l-0.71-8.94l5.55,2.2l4.11,5.77c0,0,4.36,9.69,7.27,13.08c2.9,3.39,21.79,19.85,21.79,19.85l64.41,68.3l24.22,17.91l4.87,4.61
		l4.07,3.13L291.12,165.36z"/>
	<path fill-rule="evenodd" clip-rule="evenodd" fill="none" d="M289.92,133.11l-1.93,5.8v5.81l-12.59-10.16l-30.01-31.94l-2.43-6.29
		h-2.9l-30.5-26.61l31.72-10.41l6.78,0.97h4.1c0,0,29.49,39.38,32.4,41.32l-0.45,2.96c1.46,1.93,3.39,24.67,3.39,24.67
		L289.92,133.11z"/>
	<path fill-rule="evenodd" clip-rule="evenodd" fill="none" d="M284.36,62.68l-7.35,8.58l-5.32-4.83c0,0-4.95-5.07-5.67-6.16
		c-0.72-1.08,1.2-6.04,1.2-6.04l5.33-0.88l3-3.11l4.95,3.5C282.85,56.1,284.36,62.68,284.36,62.68z"/>
</g>
<path fill-rule="evenodd" clip-rule="evenodd" fill="none" d="M207.63,50.84l-0.49,4.36l-5.81,4.84l-25.17-30l1.45-1.46l-1.69-2.9
	h26.88c0,0,1.44,6.29,1.92,10.16C205.21,39.71,207.63,50.84,207.63,50.84z"/>
</svg>
